<svg xmlns="http://www.w3.org/2000/svg" width="375" viewBox="0 0 375 225" height="225" version="1.0"><defs><clipPath id="a"><path d="M 132 10.425781 L 244 10.425781 L 244 78 L 132 78 Z M 132 10.425781"/></clipPath><clipPath id="b"><path d="M 187 81 L 286.519531 81 L 286.519531 131.175781 L 187 131.175781 Z M 187 81"/></clipPath><clipPath id="c"><path d="M 88.527344 81 L 188 81 L 188 131.175781 L 88.527344 131.175781 Z M 88.527344 81"/></clipPath></defs><g fill="#031A5B"><g><g><path d="M 13.25 0.59375 C 11.425781 0.59375 9.441406 0.320312 7.296875 -0.21875 C 5.160156 -0.769531 3.472656 -1.484375 2.234375 -2.359375 L 2.234375 -8.5625 C 2.234375 -9.070312 2.503906 -9.328125 3.046875 -9.328125 C 3.472656 -9.328125 3.804688 -9.164062 4.046875 -8.84375 C 4.296875 -8.53125 4.523438 -7.945312 4.734375 -7.09375 L 5.421875 -4.28125 C 6.203125 -3.695312 7.289062 -3.238281 8.6875 -2.90625 C 10.082031 -2.570312 11.460938 -2.40625 12.828125 -2.40625 C 14.953125 -2.40625 16.734375 -2.785156 18.171875 -3.546875 C 19.617188 -4.304688 20.34375 -5.535156 20.34375 -7.234375 C 20.34375 -8.359375 20.078125 -9.300781 19.546875 -10.0625 C 19.015625 -10.820312 18.179688 -11.519531 17.046875 -12.15625 C 15.910156 -12.789062 14.234375 -13.5625 12.015625 -14.46875 C 8.890625 -15.78125 6.5 -17.15625 4.84375 -18.59375 C 3.1875 -20.03125 2.359375 -21.890625 2.359375 -24.171875 C 2.359375 -26.835938 3.390625 -28.84375 5.453125 -30.1875 C 7.523438 -31.539062 10.046875 -32.21875 13.015625 -32.21875 C 14.929688 -32.21875 16.820312 -31.921875 18.6875 -31.328125 C 20.550781 -30.742188 22.085938 -29.96875 23.296875 -29 L 23.296875 -23.125 C 23.296875 -22.90625 23.226562 -22.71875 23.09375 -22.5625 C 22.957031 -22.414062 22.769531 -22.34375 22.53125 -22.34375 C 22.101562 -22.34375 21.757812 -22.5 21.5 -22.8125 C 21.25 -23.132812 21.015625 -23.738281 20.796875 -24.625 L 20.125 -27.40625 C 19.300781 -27.976562 18.304688 -28.421875 17.140625 -28.734375 C 15.972656 -29.054688 14.707031 -29.21875 13.34375 -29.21875 C 11.488281 -29.21875 9.960938 -28.84375 8.765625 -28.09375 C 7.566406 -27.351562 6.96875 -26.226562 6.96875 -24.71875 C 6.96875 -23.71875 7.257812 -22.859375 7.84375 -22.140625 C 8.4375 -21.429688 9.25 -20.796875 10.28125 -20.234375 C 11.3125 -19.671875 12.859375 -18.9375 14.921875 -18.03125 L 15.890625 -17.609375 C 17.953125 -16.734375 19.617188 -15.867188 20.890625 -15.015625 C 22.160156 -14.171875 23.148438 -13.160156 23.859375 -11.984375 C 24.578125 -10.816406 24.9375 -9.382812 24.9375 -7.6875 C 24.9375 -4.894531 23.84375 -2.816406 21.65625 -1.453125 C 19.476562 -0.0859375 16.675781 0.59375 13.25 0.59375 Z M 13.25 0.59375" transform="translate(110.497 180.853)"/></g></g></g><g fill="#031A5B"><g><g><path d="M 3.046875 0 C 2.773438 0 2.5625 -0.0976562 2.40625 -0.296875 C 2.257812 -0.492188 2.1875 -0.757812 2.1875 -1.09375 C 2.1875 -1.582031 2.359375 -1.945312 2.703125 -2.1875 C 3.054688 -2.425781 3.535156 -2.546875 4.140625 -2.546875 L 5.28125 -2.546875 L 5.28125 -29.765625 L 3.046875 -29.765625 C 2.472656 -29.765625 2.1875 -30.113281 2.1875 -30.8125 C 2.1875 -31.332031 2.359375 -31.710938 2.703125 -31.953125 C 3.054688 -32.191406 3.535156 -32.3125 4.140625 -32.3125 L 9.515625 -32.3125 L 9.515625 -2.546875 L 11.46875 -1.953125 C 12.40625 -1.679688 12.875 -1.242188 12.875 -0.640625 C 12.875 -0.210938 12.679688 0 12.296875 0 Z M 9.515625 -11.703125 L 18.109375 -19.625 L 15.390625 -19.625 C 15.078125 -19.625 14.835938 -19.71875 14.671875 -19.90625 C 14.503906 -20.101562 14.421875 -20.367188 14.421875 -20.703125 C 14.421875 -21.222656 14.609375 -21.617188 14.984375 -21.890625 C 15.367188 -22.160156 15.878906 -22.296875 16.515625 -22.296875 L 24.4375 -22.296875 C 24.925781 -22.296875 25.171875 -21.992188 25.171875 -21.390625 C 25.171875 -20.753906 24.65625 -20.300781 23.625 -20.03125 L 21.890625 -19.625 L 14.15625 -12.375 L 22.9375 -2.546875 L 24.984375 -2.046875 C 26.015625 -1.804688 26.53125 -1.351562 26.53125 -0.6875 C 26.53125 -0.226562 26.316406 0 25.890625 0 L 19.578125 0 Z M 9.515625 -11.703125" transform="translate(139.615 180.853)"/></g></g></g><g fill="#031A5B"><g><g><path d="M 4.5 10.28125 C 3.800781 10.28125 3.21875 10.09375 2.75 9.71875 C 2.28125 9.34375 2.046875 8.816406 2.046875 8.140625 C 2.046875 7.691406 2.179688 7.207031 2.453125 6.6875 C 4.546875 6.6875 6.1875 6.328125 7.375 5.609375 C 8.5625 4.898438 9.546875 3.609375 10.328125 1.734375 L 11.015625 0 L 2.875 -19.75 L 1.046875 -19.75 C 0.472656 -19.75 0.1875 -20.097656 0.1875 -20.796875 C 0.1875 -21.316406 0.359375 -21.695312 0.703125 -21.9375 C 1.054688 -22.175781 1.535156 -22.296875 2.140625 -22.296875 L 10.328125 -22.296875 C 10.722656 -22.296875 10.921875 -22.085938 10.921875 -21.671875 C 10.921875 -21.023438 10.46875 -20.582031 9.5625 -20.34375 L 7.28125 -19.703125 L 12.875 -5.734375 C 12.96875 -5.492188 13.03125 -5.191406 13.0625 -4.828125 C 13.09375 -4.460938 13.109375 -4.21875 13.109375 -4.09375 L 13.34375 -4.09375 C 13.34375 -4.21875 13.351562 -4.46875 13.375 -4.84375 C 13.40625 -5.226562 13.46875 -5.523438 13.5625 -5.734375 L 19.203125 -19.75 L 16.515625 -19.75 C 15.941406 -19.75 15.65625 -20.097656 15.65625 -20.796875 C 15.65625 -21.316406 15.828125 -21.695312 16.171875 -21.9375 C 16.523438 -22.175781 17.003906 -22.296875 17.609375 -22.296875 L 24.984375 -22.296875 C 25.410156 -22.296875 25.625 -22.085938 25.625 -21.671875 C 25.625 -21.148438 25.15625 -20.707031 24.21875 -20.34375 L 22.34375 -19.703125 L 13.796875 1.453125 C 12.609375 4.335938 11.304688 6.53125 9.890625 8.03125 C 8.484375 9.53125 6.6875 10.28125 4.5 10.28125 Z M 4.5 10.28125" transform="translate(169.188 180.853)"/></g></g></g><g fill="#031A5B"><g><g><path d="M 3.234375 0 C 2.742188 0 2.5 -0.300781 2.5 -0.90625 C 2.5 -1.851562 3.195312 -2.460938 4.59375 -2.734375 L 5.828125 -2.953125 L 5.828125 -28.671875 L 4.59375 -28.90625 C 3.863281 -29.019531 3.332031 -29.226562 3 -29.53125 C 2.664062 -29.84375 2.5 -30.238281 2.5 -30.71875 C 2.5 -31.332031 2.742188 -31.640625 3.234375 -31.640625 L 28.03125 -31.640625 L 28.03125 -25.265625 C 28.03125 -24.742188 27.773438 -24.484375 27.265625 -24.484375 C 26.898438 -24.484375 26.59375 -24.664062 26.34375 -25.03125 C 26.101562 -25.394531 25.894531 -25.972656 25.71875 -26.765625 L 25.265625 -28.71875 L 10.375 -28.71875 L 10.375 -17.609375 L 22.625 -17.609375 L 23.21875 -19.578125 C 23.519531 -20.484375 23.910156 -20.9375 24.390625 -20.9375 C 24.878906 -20.9375 25.125 -20.707031 25.125 -20.25 L 25.125 -12.109375 C 25.125 -11.648438 24.878906 -11.421875 24.390625 -11.421875 C 23.910156 -11.421875 23.519531 -11.878906 23.21875 -12.796875 L 22.625 -14.75 L 10.375 -14.75 L 10.375 -2.90625 L 25.890625 -2.90625 L 26.359375 -5 C 26.535156 -5.789062 26.742188 -6.359375 26.984375 -6.703125 C 27.234375 -7.054688 27.523438 -7.234375 27.859375 -7.234375 C 28.367188 -7.234375 28.625 -6.976562 28.625 -6.46875 L 28.625 0 Z M 3.234375 0" transform="translate(196.85 180.853)"/></g></g></g><g fill="#031A5B"><g><g><path d="M 3.234375 0 C 2.742188 0 2.5 -0.300781 2.5 -0.90625 C 2.5 -1.851562 3.195312 -2.460938 4.59375 -2.734375 L 5.828125 -2.953125 L 5.828125 -28.671875 L 4.59375 -28.90625 C 3.195312 -29.175781 2.5 -29.78125 2.5 -30.71875 C 2.5 -31.332031 2.742188 -31.640625 3.234375 -31.640625 L 16.75 -31.640625 C 19.664062 -31.640625 22.265625 -31.0625 24.546875 -29.90625 C 26.835938 -28.75 28.648438 -26.976562 29.984375 -24.59375 C 31.328125 -22.21875 32 -19.269531 32 -15.75 C 32 -12.226562 31.328125 -9.289062 29.984375 -6.9375 C 28.648438 -4.582031 26.835938 -2.835938 24.546875 -1.703125 C 22.265625 -0.566406 19.664062 0 16.75 0 Z M 16.75 -3 C 20.113281 -3 22.722656 -4.113281 24.578125 -6.34375 C 26.429688 -8.570312 27.359375 -11.707031 27.359375 -15.75 C 27.359375 -19.8125 26.429688 -22.972656 24.578125 -25.234375 C 22.722656 -27.492188 20.113281 -28.625 16.75 -28.625 L 10.375 -28.625 L 10.375 -3 Z M 16.75 -3" transform="translate(230.517 180.853)"/></g></g></g><g fill="#FAAE2B"><g><g><path d="M 4.796875 0.15625 C 3.796875 0.15625 3.015625 -0.0390625 2.453125 -0.4375 C 1.898438 -0.84375 1.515625 -1.398438 1.296875 -2.109375 C 1.085938 -2.828125 0.984375 -3.726562 0.984375 -4.8125 L 0.984375 -14.28125 L 2.890625 -14.28125 L 2.890625 -4.734375 C 2.890625 -3.648438 3.015625 -2.820312 3.265625 -2.25 C 3.523438 -1.6875 4.035156 -1.40625 4.796875 -1.40625 C 5.554688 -1.40625 6.0625 -1.6875 6.3125 -2.25 C 6.570312 -2.820312 6.703125 -3.648438 6.703125 -4.734375 L 6.703125 -14.28125 L 8.59375 -14.28125 L 8.59375 -4.8125 C 8.59375 -3.726562 8.484375 -2.828125 8.265625 -2.109375 C 8.054688 -1.398438 7.675781 -0.84375 7.125 -0.4375 C 6.570312 -0.0390625 5.796875 0.15625 4.796875 0.15625 Z M 4.796875 0.15625" transform="translate(84.085 212.928)"/></g></g></g><g fill="#FAAE2B"><g><g><path d="M 1.109375 -14.28125 L 2.46875 -14.28125 L 6.53125 -4.796875 L 6.53125 -14.28125 L 8.1875 -14.28125 L 8.1875 0 L 6.921875 0 L 2.8125 -9.75 L 2.8125 0 L 1.109375 0 Z M 1.109375 -14.28125" transform="translate(98.395 212.928)"/></g></g></g><g fill="#FAAE2B"><g><g><path d="M 1.21875 -14.28125 L 3.171875 -14.28125 L 3.171875 0 L 1.21875 0 Z M 1.21875 -14.28125" transform="translate(112.44 212.928)"/></g></g></g><g fill="#FAAE2B"><g><g><path d="M 0.40625 -14.28125 L 2.28125 -14.28125 L 4.53125 -3.75 L 6.6875 -14.28125 L 8.5 -14.28125 L 5.34375 0 L 3.59375 0 Z M 0.40625 -14.28125" transform="translate(121.545 212.928)"/></g></g></g><g fill="#FAAE2B"><g><g><path d="M 1.109375 -14.28125 L 6.65625 -14.28125 L 6.65625 -12.8125 L 3.109375 -12.8125 L 3.109375 -8.078125 L 5.984375 -8.078125 L 5.984375 -6.671875 L 3.109375 -6.671875 L 3.109375 -1.421875 L 6.6875 -1.421875 L 6.6875 0 L 1.109375 0 Z M 1.109375 -14.28125" transform="translate(135.185 212.928)"/></g></g></g><g fill="#FAAE2B"><g><g><path d="M 1.109375 -14.28125 L 3.984375 -14.28125 C 5.429688 -14.28125 6.492188 -13.984375 7.171875 -13.390625 C 7.847656 -12.796875 8.1875 -11.832031 8.1875 -10.5 C 8.1875 -8.664062 7.597656 -7.550781 6.421875 -7.15625 L 8.453125 0 L 6.53125 0 L 4.65625 -6.703125 L 3.109375 -6.703125 L 3.109375 0 L 1.109375 0 Z M 3.859375 -8.125 C 4.722656 -8.125 5.335938 -8.296875 5.703125 -8.640625 C 6.078125 -8.984375 6.265625 -9.601562 6.265625 -10.5 C 6.265625 -11.082031 6.195312 -11.539062 6.0625 -11.875 C 5.9375 -12.21875 5.707031 -12.46875 5.375 -12.625 C 5.050781 -12.78125 4.585938 -12.859375 3.984375 -12.859375 L 3.109375 -12.859375 L 3.109375 -8.125 Z M 3.859375 -8.125" transform="translate(147.095 212.928)"/></g></g></g><g fill="#FAAE2B"><g><g><path d="M 4.484375 0.15625 C 3.285156 0.15625 2.367188 -0.210938 1.734375 -0.953125 C 1.109375 -1.691406 0.757812 -2.707031 0.6875 -4 L 2.453125 -4.484375 C 2.515625 -3.566406 2.691406 -2.820312 2.984375 -2.25 C 3.285156 -1.6875 3.785156 -1.40625 4.484375 -1.40625 C 4.992188 -1.40625 5.378906 -1.550781 5.640625 -1.84375 C 5.910156 -2.132812 6.046875 -2.550781 6.046875 -3.09375 C 6.046875 -3.675781 5.921875 -4.160156 5.671875 -4.546875 C 5.429688 -4.941406 5.039062 -5.375 4.5 -5.84375 L 2.09375 -7.953125 C 1.613281 -8.378906 1.265625 -8.835938 1.046875 -9.328125 C 0.828125 -9.816406 0.71875 -10.410156 0.71875 -11.109375 C 0.71875 -12.160156 1.015625 -12.972656 1.609375 -13.546875 C 2.210938 -14.117188 3.035156 -14.40625 4.078125 -14.40625 C 5.203125 -14.40625 6.050781 -14.101562 6.625 -13.5 C 7.207031 -12.90625 7.554688 -11.976562 7.671875 -10.71875 L 5.984375 -10.265625 C 5.921875 -11.097656 5.753906 -11.738281 5.484375 -12.1875 C 5.222656 -12.644531 4.753906 -12.875 4.078125 -12.875 C 3.566406 -12.875 3.175781 -12.738281 2.90625 -12.46875 C 2.632812 -12.207031 2.5 -11.820312 2.5 -11.3125 C 2.5 -10.882812 2.566406 -10.523438 2.703125 -10.234375 C 2.847656 -9.953125 3.09375 -9.660156 3.4375 -9.359375 L 5.859375 -7.25 C 6.484375 -6.695312 6.976562 -6.097656 7.34375 -5.453125 C 7.71875 -4.804688 7.90625 -4.070312 7.90625 -3.25 C 7.90625 -2.195312 7.585938 -1.363281 6.953125 -0.75 C 6.316406 -0.144531 5.492188 0.15625 4.484375 0.15625 Z M 4.484375 0.15625" transform="translate(160.982 212.928)"/></g></g></g><g fill="#FAAE2B"><g><g><path d="M 1.21875 -14.28125 L 3.171875 -14.28125 L 3.171875 0 L 1.21875 0 Z M 1.21875 -14.28125" transform="translate(174.056 212.928)"/></g></g></g><g fill="#FAAE2B"><g><g><path d="M 2.6875 -12.8125 L 0.265625 -12.8125 L 0.265625 -14.28125 L 7.015625 -14.28125 L 7.015625 -12.8125 L 4.671875 -12.8125 L 4.671875 0 L 2.6875 0 Z M 2.6875 -12.8125" transform="translate(183.162 212.928)"/></g></g></g><g fill="#FAAE2B"><g><g><path d="M 3.296875 -5.046875 L 0.21875 -14.28125 L 2.0625 -14.28125 L 4.25 -7.390625 L 6.40625 -14.28125 L 8.265625 -14.28125 L 5.203125 -5.046875 L 5.203125 0 L 3.296875 0 Z M 3.296875 -5.046875" transform="translate(195.179 212.928)"/></g></g></g><g fill="#FAAE2B"><g><g><path d="M 1.109375 -14.28125 L 4.65625 -14.28125 C 5.894531 -14.28125 6.789062 -13.945312 7.34375 -13.28125 C 7.90625 -12.613281 8.1875 -11.632812 8.1875 -10.34375 C 8.1875 -9.175781 7.882812 -8.269531 7.28125 -7.625 C 6.6875 -6.976562 5.816406 -6.65625 4.671875 -6.65625 L 3.109375 -6.65625 L 3.109375 0 L 1.109375 0 Z M 4.015625 -8.078125 C 4.609375 -8.078125 5.066406 -8.140625 5.390625 -8.265625 C 5.710938 -8.398438 5.941406 -8.625 6.078125 -8.9375 C 6.222656 -9.257812 6.296875 -9.71875 6.296875 -10.3125 C 6.296875 -11.039062 6.242188 -11.578125 6.140625 -11.921875 C 6.035156 -12.265625 5.828125 -12.503906 5.515625 -12.640625 C 5.203125 -12.785156 4.710938 -12.859375 4.046875 -12.859375 L 3.109375 -12.859375 L 3.109375 -8.078125 Z M 4.015625 -8.078125" transform="translate(217.165 212.928)"/></g></g></g><g fill="#FAAE2B"><g><g><path d="M 4.765625 0.15625 C 3.359375 0.15625 2.351562 -0.238281 1.75 -1.03125 C 1.144531 -1.820312 0.84375 -2.972656 0.84375 -4.484375 L 0.84375 -9.890625 C 0.84375 -11.378906 1.148438 -12.503906 1.765625 -13.265625 C 2.378906 -14.023438 3.378906 -14.40625 4.765625 -14.40625 C 6.148438 -14.40625 7.144531 -14.019531 7.75 -13.25 C 8.351562 -12.476562 8.65625 -11.359375 8.65625 -9.890625 L 8.65625 -4.46875 C 8.65625 -2.976562 8.347656 -1.832031 7.734375 -1.03125 C 7.128906 -0.238281 6.140625 0.15625 4.765625 0.15625 Z M 4.765625 -1.40625 C 5.503906 -1.40625 6.003906 -1.625 6.265625 -2.0625 C 6.523438 -2.5 6.65625 -3.160156 6.65625 -4.046875 L 6.65625 -10.296875 C 6.65625 -11.171875 6.523438 -11.816406 6.265625 -12.234375 C 6.003906 -12.648438 5.503906 -12.859375 4.765625 -12.859375 C 4.015625 -12.859375 3.507812 -12.648438 3.25 -12.234375 C 2.988281 -11.816406 2.859375 -11.171875 2.859375 -10.296875 L 2.859375 -4.046875 C 2.859375 -3.160156 2.988281 -2.5 3.25 -2.0625 C 3.507812 -1.625 4.015625 -1.40625 4.765625 -1.40625 Z M 4.765625 -1.40625" transform="translate(230.364 212.928)"/></g></g></g><g fill="#FAAE2B"><g><g><path d="M 1.109375 -14.28125 L 3.984375 -14.28125 C 5.429688 -14.28125 6.492188 -13.984375 7.171875 -13.390625 C 7.847656 -12.796875 8.1875 -11.832031 8.1875 -10.5 C 8.1875 -8.664062 7.597656 -7.550781 6.421875 -7.15625 L 8.453125 0 L 6.53125 0 L 4.65625 -6.703125 L 3.109375 -6.703125 L 3.109375 0 L 1.109375 0 Z M 3.859375 -8.125 C 4.722656 -8.125 5.335938 -8.296875 5.703125 -8.640625 C 6.078125 -8.984375 6.265625 -9.601562 6.265625 -10.5 C 6.265625 -11.082031 6.195312 -11.539062 6.0625 -11.875 C 5.9375 -12.21875 5.707031 -12.46875 5.375 -12.625 C 5.050781 -12.78125 4.585938 -12.859375 3.984375 -12.859375 L 3.109375 -12.859375 L 3.109375 -8.125 Z M 3.859375 -8.125" transform="translate(244.603 212.928)"/></g></g></g><g fill="#FAAE2B"><g><g><path d="M 2.6875 -12.8125 L 0.265625 -12.8125 L 0.265625 -14.28125 L 7.015625 -14.28125 L 7.015625 -12.8125 L 4.671875 -12.8125 L 4.671875 0 L 2.6875 0 Z M 2.6875 -12.8125" transform="translate(258.49 212.928)"/></g></g></g><g fill="#FAAE2B"><g><g><path d="M 3.375 -14.28125 L 5.296875 -14.28125 L 8.34375 0 L 6.453125 0 L 5.796875 -3.59375 L 2.890625 -3.59375 L 2.203125 0 L 0.328125 0 Z M 5.546875 -5.03125 L 4.34375 -11.46875 L 3.15625 -5.03125 Z M 5.546875 -5.03125" transform="translate(270.506 212.928)"/></g></g></g><g fill="#FAAE2B"><g><g><path d="M 1.109375 -14.28125 L 3.109375 -14.28125 L 3.109375 -1.421875 L 6.75 -1.421875 L 6.75 0 L 1.109375 0 Z M 1.109375 -14.28125" transform="translate(283.916 212.928)"/></g></g></g><g clip-path="url(#a)"><path fill="#031A5B" d="M 226.378906 40.242188 L 226.378906 26.460938 L 243.03125 22.652344 L 187.308594 10.507812 L 132.007812 24.476562 L 153.882812 27.714844 C 159.082031 28.480469 162.933594 32.9375 162.933594 38.183594 L 162.933594 45.71875 C 162.433594 47.703125 162.164062 49.777344 162.164062 51.914062 C 162.164062 65.898438 173.515625 77.230469 187.519531 77.230469 C 201.523438 77.230469 212.875 65.898438 212.875 51.914062 C 212.875 49.777344 212.609375 47.703125 212.109375 45.71875 L 212.109375 38.164062 C 212.109375 33.226562 215.523438 28.945312 220.339844 27.84375 L 225.132812 26.746094 L 225.132812 40.242188 C 224.746094 40.347656 224.472656 40.550781 224.4375 40.785156 L 223.679688 40.785156 L 223.679688 48.636719 C 223.679688 49.785156 224.609375 50.714844 225.757812 50.714844 C 226.90625 50.714844 227.835938 49.785156 227.835938 48.636719 L 227.835938 40.785156 L 227.078125 40.785156 C 227.042969 40.550781 226.769531 40.347656 226.378906 40.242188"/></g><path fill="#52C3FF" d="M 233.792969 84.839844 C 250.980469 83.511719 261.195312 77.425781 266.738281 72.554688 C 268.730469 70.804688 270.273438 69.085938 271.457031 67.5625 C 271.492188 61.148438 270.941406 54.765625 270.941406 54.765625 C 270.941406 54.765625 263.417969 74.621094 231.015625 77.128906 C 197.214844 79.742188 187.519531 90.089844 187.519531 90.089844 L 187.519531 98.039062 C 191.453125 94.957031 204.148438 87.132812 233.792969 84.839844"/><path fill="#52C3FF" d="M 236.316406 95.375 C 261.265625 93.445312 272.625 82.117188 277.09375 75.769531 C 277.21875 68.242188 276.558594 62.910156 276.558594 62.910156 C 276.558594 62.910156 268.527344 84.101562 233.945312 86.78125 C 197.867188 89.570312 187.519531 100.617188 187.519531 100.617188 L 187.519531 109.320312 C 191.570312 106.117188 204.898438 97.804688 236.316406 95.375"/><path fill="#52C3FF" d="M 238.671875 105.683594 C 257.734375 104.207031 269.066406 97.449219 275.21875 92.035156 C 278.417969 89.222656 280.582031 86.476562 281.976562 84.371094 C 282.019531 77.148438 281.398438 72.148438 281.398438 72.148438 C 281.398438 72.148438 272.929688 94.492188 236.46875 97.316406 C 198.429688 100.257812 187.519531 111.902344 187.519531 111.902344 L 187.519531 120.320312 C 191.679688 117.011719 205.601562 108.242188 238.671875 105.683594"/><g clip-path="url(#b)"><path fill="#52C3FF" d="M 240.691406 115.859375 C 270.738281 113.535156 282.753906 98.714844 286.519531 92.464844 C 286.472656 85.761719 285.914062 81.246094 285.914062 81.246094 C 285.914062 81.246094 277.042969 104.664062 238.820312 107.621094 C 198.957031 110.707031 187.519531 122.910156 187.519531 122.910156 L 187.519531 131.097656 C 191.769531 127.695312 206.203125 118.527344 240.691406 115.859375"/></g><path fill="#52C3FF" d="M 141.246094 84.839844 C 124.0625 83.511719 113.84375 77.425781 108.300781 72.554688 C 106.3125 70.804688 104.765625 69.085938 103.585938 67.5625 C 103.550781 61.148438 104.097656 54.765625 104.097656 54.765625 C 104.097656 54.765625 111.621094 74.621094 144.027344 77.128906 C 177.824219 79.742188 187.519531 90.089844 187.519531 90.089844 L 187.519531 98.039062 C 183.585938 94.957031 170.894531 87.132812 141.246094 84.839844"/><path fill="#52C3FF" d="M 138.726562 95.375 C 113.777344 93.445312 102.417969 82.117188 97.945312 75.769531 C 97.820312 68.242188 98.480469 62.910156 98.480469 62.910156 C 98.480469 62.910156 106.511719 84.101562 141.097656 86.78125 C 177.171875 89.570312 187.519531 100.617188 187.519531 100.617188 L 187.519531 109.320312 C 183.472656 106.117188 170.140625 97.804688 138.726562 95.375"/><path fill="#52C3FF" d="M 136.371094 105.683594 C 117.308594 104.207031 105.972656 97.449219 99.820312 92.035156 C 96.625 89.222656 94.457031 86.476562 93.0625 84.371094 C 93.023438 77.148438 93.644531 72.148438 93.644531 72.148438 C 93.644531 72.148438 102.109375 94.492188 138.574219 97.316406 C 176.609375 100.257812 187.519531 111.902344 187.519531 111.902344 L 187.519531 120.320312 C 183.363281 117.011719 169.4375 108.242188 136.371094 105.683594"/><g clip-path="url(#c)"><path fill="#52C3FF" d="M 134.351562 115.859375 C 104.304688 113.535156 92.289062 98.714844 88.519531 92.464844 C 88.566406 85.761719 89.128906 81.246094 89.128906 81.246094 C 89.128906 81.246094 98 104.664062 136.21875 107.621094 C 176.085938 110.707031 187.519531 122.910156 187.519531 122.910156 L 187.519531 131.097656 C 183.269531 127.695312 168.839844 118.527344 134.351562 115.859375"/></g></svg>