<svg xmlns="http://www.w3.org/2000/svg" width="375" viewBox="0 0 375 225" height="225" version="1.0"><defs><clipPath id="a"><path d="M 122 6.804688 L 253 6.804688 L 253 85 L 122 85 Z M 122 6.804688"/></clipPath><clipPath id="b"><path d="M 187 89 L 303.023438 89 L 303.023438 147.804688 L 187 147.804688 Z M 187 89"/></clipPath><clipPath id="c"><path d="M 72.035156 89 L 188 89 L 188 147.804688 L 72.035156 147.804688 Z M 72.035156 89"/></clipPath></defs><g fill="#031A5B"><g><g><path d="M 15.453125 0.6875 C 13.328125 0.6875 11.015625 0.367188 8.515625 -0.265625 C 6.023438 -0.898438 4.054688 -1.734375 2.609375 -2.765625 L 2.609375 -9.984375 C 2.609375 -10.585938 2.925781 -10.890625 3.5625 -10.890625 C 4.050781 -10.890625 4.4375 -10.703125 4.71875 -10.328125 C 5.007812 -9.953125 5.273438 -9.269531 5.515625 -8.28125 L 6.3125 -4.984375 C 7.238281 -4.316406 8.515625 -3.785156 10.140625 -3.390625 C 11.765625 -3.003906 13.375 -2.8125 14.96875 -2.8125 C 17.445312 -2.8125 19.523438 -3.253906 21.203125 -4.140625 C 22.890625 -5.023438 23.734375 -6.457031 23.734375 -8.4375 C 23.734375 -9.75 23.421875 -10.847656 22.796875 -11.734375 C 22.179688 -12.617188 21.207031 -13.429688 19.875 -14.171875 C 18.550781 -14.921875 16.597656 -15.828125 14.015625 -16.890625 C 10.367188 -18.410156 7.582031 -20.007812 5.65625 -21.6875 C 3.726562 -23.363281 2.765625 -25.53125 2.765625 -28.1875 C 2.765625 -31.300781 3.96875 -33.644531 6.375 -35.21875 C 8.78125 -36.800781 11.71875 -37.59375 15.1875 -37.59375 C 17.414062 -37.59375 19.617188 -37.242188 21.796875 -36.546875 C 23.972656 -35.859375 25.769531 -34.953125 27.1875 -33.828125 L 27.1875 -26.96875 C 27.1875 -26.71875 27.101562 -26.503906 26.9375 -26.328125 C 26.78125 -26.148438 26.5625 -26.0625 26.28125 -26.0625 C 25.78125 -26.0625 25.378906 -26.25 25.078125 -26.625 C 24.785156 -27 24.515625 -27.695312 24.265625 -28.71875 L 23.46875 -31.96875 C 22.507812 -32.632812 21.347656 -33.15625 19.984375 -33.53125 C 18.628906 -33.90625 17.15625 -34.09375 15.5625 -34.09375 C 13.394531 -34.09375 11.613281 -33.65625 10.21875 -32.78125 C 8.820312 -31.914062 8.125 -30.597656 8.125 -28.828125 C 8.125 -27.660156 8.46875 -26.660156 9.15625 -25.828125 C 9.84375 -24.992188 10.785156 -24.25 11.984375 -23.59375 C 13.191406 -22.945312 15.003906 -22.09375 17.421875 -21.03125 L 18.53125 -20.546875 C 20.9375 -19.515625 22.878906 -18.503906 24.359375 -17.515625 C 25.847656 -16.523438 27.007812 -15.347656 27.84375 -13.984375 C 28.675781 -12.628906 29.09375 -10.957031 29.09375 -8.96875 C 29.09375 -5.71875 27.816406 -3.296875 25.265625 -1.703125 C 22.722656 -0.109375 19.453125 0.6875 15.453125 0.6875 Z M 15.453125 0.6875" transform="translate(97.664 203.611)"/></g></g></g><g fill="#031A5B"><g><g><path d="M 3.5625 0 C 3.238281 0 2.988281 -0.113281 2.8125 -0.34375 C 2.632812 -0.570312 2.546875 -0.882812 2.546875 -1.28125 C 2.546875 -1.84375 2.75 -2.265625 3.15625 -2.546875 C 3.5625 -2.828125 4.117188 -2.96875 4.828125 -2.96875 L 6.15625 -2.96875 L 6.15625 -34.71875 L 3.5625 -34.71875 C 2.882812 -34.71875 2.546875 -35.125 2.546875 -35.9375 C 2.546875 -36.539062 2.75 -36.984375 3.15625 -37.265625 C 3.5625 -37.554688 4.117188 -37.703125 4.828125 -37.703125 L 11.09375 -37.703125 L 11.09375 -2.96875 L 13.375 -2.28125 C 14.476562 -1.96875 15.03125 -1.457031 15.03125 -0.75 C 15.03125 -0.25 14.796875 0 14.328125 0 Z M 11.09375 -13.640625 L 21.125 -22.890625 L 17.953125 -22.890625 C 17.597656 -22.890625 17.320312 -23.003906 17.125 -23.234375 C 16.925781 -23.460938 16.828125 -23.769531 16.828125 -24.15625 C 16.828125 -24.757812 17.046875 -25.21875 17.484375 -25.53125 C 17.929688 -25.851562 18.523438 -26.015625 19.265625 -26.015625 L 28.515625 -26.015625 C 29.078125 -26.015625 29.359375 -25.660156 29.359375 -24.953125 C 29.359375 -24.210938 28.757812 -23.679688 27.5625 -23.359375 L 25.53125 -22.890625 L 16.515625 -14.4375 L 26.765625 -2.96875 L 29.140625 -2.390625 C 30.347656 -2.109375 30.953125 -1.578125 30.953125 -0.796875 C 30.953125 -0.265625 30.703125 0 30.203125 0 L 22.828125 0 Z M 11.09375 -13.640625" transform="translate(131.635 203.611)"/></g></g></g><g fill="#031A5B"><g><g><path d="M 5.25 12 C 4.4375 12 3.753906 11.773438 3.203125 11.328125 C 2.660156 10.890625 2.390625 10.28125 2.390625 9.5 C 2.390625 8.96875 2.546875 8.40625 2.859375 7.8125 C 5.304688 7.8125 7.21875 7.394531 8.59375 6.5625 C 9.976562 5.726562 11.128906 4.210938 12.046875 2.015625 L 12.84375 0 L 3.34375 -23.046875 L 1.21875 -23.046875 C 0.550781 -23.046875 0.21875 -23.453125 0.21875 -24.265625 C 0.21875 -24.867188 0.421875 -25.3125 0.828125 -25.59375 C 1.234375 -25.875 1.789062 -26.015625 2.5 -26.015625 L 12.046875 -26.015625 C 12.515625 -26.015625 12.75 -25.765625 12.75 -25.265625 C 12.75 -24.523438 12.21875 -24.015625 11.15625 -23.734375 L 8.5 -22.984375 L 15.03125 -6.6875 C 15.132812 -6.40625 15.203125 -6.050781 15.234375 -5.625 C 15.273438 -5.195312 15.296875 -4.914062 15.296875 -4.78125 L 15.5625 -4.78125 C 15.5625 -4.914062 15.578125 -5.203125 15.609375 -5.640625 C 15.640625 -6.085938 15.710938 -6.4375 15.828125 -6.6875 L 22.40625 -23.046875 L 19.265625 -23.046875 C 18.597656 -23.046875 18.265625 -23.453125 18.265625 -24.265625 C 18.265625 -24.867188 18.46875 -25.3125 18.875 -25.59375 C 19.28125 -25.875 19.835938 -26.015625 20.546875 -26.015625 L 29.140625 -26.015625 C 29.640625 -26.015625 29.890625 -25.765625 29.890625 -25.265625 C 29.890625 -24.671875 29.34375 -24.160156 28.25 -23.734375 L 26.0625 -22.984375 L 16.09375 1.703125 C 14.707031 5.066406 13.191406 7.625 11.546875 9.375 C 9.898438 11.125 7.800781 12 5.25 12 Z M 5.25 12" transform="translate(166.136 203.611)"/></g></g></g><g fill="#031A5B"><g><g><path d="M 3.765625 0 C 3.203125 0 2.921875 -0.351562 2.921875 -1.0625 C 2.921875 -2.15625 3.734375 -2.863281 5.359375 -3.1875 L 6.796875 -3.453125 L 6.796875 -33.453125 L 5.359375 -33.71875 C 4.515625 -33.851562 3.894531 -34.097656 3.5 -34.453125 C 3.113281 -34.804688 2.921875 -35.269531 2.921875 -35.84375 C 2.921875 -36.550781 3.203125 -36.90625 3.765625 -36.90625 L 32.703125 -36.90625 L 32.703125 -29.46875 C 32.703125 -28.863281 32.398438 -28.5625 31.796875 -28.5625 C 31.378906 -28.5625 31.023438 -28.773438 30.734375 -29.203125 C 30.453125 -29.628906 30.207031 -30.300781 30 -31.21875 L 29.46875 -33.5 L 12.109375 -33.5 L 12.109375 -20.546875 L 26.390625 -20.546875 L 27.078125 -22.828125 C 27.429688 -23.890625 27.890625 -24.421875 28.453125 -24.421875 C 29.023438 -24.421875 29.3125 -24.15625 29.3125 -23.625 L 29.3125 -14.125 C 29.3125 -13.59375 29.023438 -13.328125 28.453125 -13.328125 C 27.890625 -13.328125 27.429688 -13.859375 27.078125 -14.921875 L 26.390625 -17.203125 L 12.109375 -17.203125 L 12.109375 -3.390625 L 30.203125 -3.390625 L 30.734375 -5.84375 C 30.953125 -6.757812 31.203125 -7.421875 31.484375 -7.828125 C 31.765625 -8.234375 32.101562 -8.4375 32.5 -8.4375 C 33.09375 -8.4375 33.390625 -8.140625 33.390625 -7.546875 L 33.390625 0 Z M 3.765625 0" transform="translate(198.408 203.611)"/></g></g></g><g fill="#031A5B"><g><g><path d="M 3.765625 0 C 3.203125 0 2.921875 -0.351562 2.921875 -1.0625 C 2.921875 -2.15625 3.734375 -2.863281 5.359375 -3.1875 L 6.796875 -3.453125 L 6.796875 -33.453125 L 5.359375 -33.71875 C 3.734375 -34.03125 2.921875 -34.738281 2.921875 -35.84375 C 2.921875 -36.550781 3.203125 -36.90625 3.765625 -36.90625 L 19.53125 -36.90625 C 22.9375 -36.90625 25.972656 -36.226562 28.640625 -34.875 C 31.316406 -33.53125 33.429688 -31.46875 34.984375 -28.6875 C 36.546875 -25.914062 37.328125 -22.476562 37.328125 -18.375 C 37.328125 -14.269531 36.546875 -10.84375 34.984375 -8.09375 C 33.429688 -5.351562 31.316406 -3.316406 28.640625 -1.984375 C 25.972656 -0.660156 22.9375 0 19.53125 0 Z M 19.53125 -3.5 C 23.46875 -3.5 26.515625 -4.800781 28.671875 -7.40625 C 30.828125 -10.007812 31.90625 -13.664062 31.90625 -18.375 C 31.90625 -23.113281 30.828125 -26.800781 28.671875 -29.4375 C 26.515625 -32.070312 23.46875 -33.390625 19.53125 -33.390625 L 12.109375 -33.390625 L 12.109375 -3.5 Z M 19.53125 -3.5" transform="translate(237.686 203.611)"/></g></g></g><g clip-path="url(#a)"><path fill="#031A5B" d="M 232.859375 41.621094 L 232.859375 25.53125 L 252.289062 21.082031 L 187.277344 6.898438 L 122.761719 23.214844 L 148.285156 26.992188 C 154.347656 27.890625 158.839844 33.089844 158.839844 39.214844 L 158.839844 48.015625 C 158.257812 50.332031 157.945312 52.753906 157.945312 55.25 C 157.945312 71.578125 171.1875 84.808594 187.523438 84.808594 C 203.863281 84.808594 217.105469 71.578125 217.105469 55.25 C 217.105469 52.753906 216.792969 50.332031 216.210938 48.015625 L 216.210938 39.191406 C 216.210938 33.429688 220.195312 28.429688 225.816406 27.144531 L 231.40625 25.863281 L 231.40625 41.621094 C 230.953125 41.746094 230.636719 41.980469 230.59375 42.257812 L 229.710938 42.257812 L 229.710938 51.421875 C 229.710938 52.761719 230.796875 53.847656 232.132812 53.847656 C 233.472656 53.847656 234.558594 52.761719 234.558594 51.421875 L 234.558594 42.257812 L 233.675781 42.257812 C 233.632812 41.980469 233.316406 41.746094 232.859375 41.621094"/></g><path fill="#52C3FF" d="M 241.511719 93.695312 C 261.558594 92.144531 273.480469 85.039062 279.949219 79.347656 C 282.269531 77.308594 284.070312 75.300781 285.449219 73.523438 C 285.492188 66.035156 284.851562 58.578125 284.851562 58.578125 C 284.851562 58.578125 276.074219 81.761719 238.269531 84.691406 C 198.835938 87.742188 187.523438 99.824219 187.523438 99.824219 L 187.523438 109.105469 C 192.113281 105.507812 206.921875 96.375 241.511719 93.695312"/><path fill="#52C3FF" d="M 244.453125 105.996094 C 273.558594 103.742188 286.8125 90.519531 292.027344 83.105469 C 292.175781 74.316406 291.402344 68.089844 291.402344 68.089844 C 291.402344 68.089844 282.035156 92.835938 241.6875 95.960938 C 199.597656 99.21875 187.523438 112.117188 187.523438 112.117188 L 187.523438 122.277344 C 192.25 118.539062 207.800781 108.835938 244.453125 105.996094"/><path fill="#52C3FF" d="M 247.199219 118.03125 C 269.441406 116.3125 282.664062 108.417969 289.839844 102.097656 C 293.570312 98.8125 296.097656 95.605469 297.726562 93.148438 C 297.773438 84.714844 297.046875 78.878906 297.046875 78.878906 C 297.046875 78.878906 287.171875 104.96875 244.628906 108.261719 C 200.253906 111.695312 187.523438 125.296875 187.523438 125.296875 L 187.523438 135.125 C 192.375 131.261719 208.621094 121.019531 247.199219 118.03125"/><g clip-path="url(#b)"><path fill="#52C3FF" d="M 249.554688 129.914062 C 284.613281 127.203125 298.628906 109.894531 303.023438 102.601562 C 302.96875 94.769531 302.316406 89.496094 302.316406 89.496094 C 302.316406 89.496094 291.964844 116.84375 247.375 120.296875 C 200.867188 123.898438 187.523438 138.148438 187.523438 138.148438 L 187.523438 147.707031 C 192.484375 143.738281 209.320312 133.03125 249.554688 129.914062"/></g><path fill="#52C3FF" d="M 133.539062 93.695312 C 113.492188 92.144531 101.570312 85.039062 95.101562 79.347656 C 92.78125 77.308594 90.980469 75.300781 89.601562 73.523438 C 89.558594 66.035156 90.199219 58.578125 90.199219 58.578125 C 90.199219 58.578125 98.976562 81.761719 136.78125 84.691406 C 176.214844 87.742188 187.523438 99.824219 187.523438 99.824219 L 187.523438 109.105469 C 182.9375 105.507812 168.125 96.375 133.539062 93.695312"/><path fill="#52C3FF" d="M 130.597656 105.996094 C 101.492188 103.742188 88.238281 90.519531 83.023438 83.105469 C 82.875 74.316406 83.648438 68.089844 83.648438 68.089844 C 83.648438 68.089844 93.015625 92.835938 133.363281 95.960938 C 175.453125 99.21875 187.523438 112.117188 187.523438 112.117188 L 187.523438 122.277344 C 182.800781 118.539062 167.25 108.835938 130.597656 105.996094"/><path fill="#52C3FF" d="M 127.851562 118.03125 C 105.609375 116.3125 92.386719 108.417969 85.210938 102.097656 C 81.480469 98.8125 78.953125 95.605469 77.324219 93.148438 C 77.277344 84.714844 78.003906 78.878906 78.003906 78.878906 C 78.003906 78.878906 87.878906 104.96875 130.421875 108.261719 C 174.796875 111.695312 187.523438 125.296875 187.523438 125.296875 L 187.523438 135.125 C 182.675781 131.261719 166.429688 121.019531 127.851562 118.03125"/><g clip-path="url(#c)"><path fill="#52C3FF" d="M 125.496094 129.914062 C 90.441406 127.203125 76.421875 109.894531 72.023438 102.601562 C 72.082031 94.769531 72.734375 89.496094 72.734375 89.496094 C 72.734375 89.496094 83.085938 116.84375 127.675781 120.296875 C 174.183594 123.898438 187.523438 138.148438 187.523438 138.148438 L 187.523438 147.707031 C 182.566406 143.738281 165.730469 133.03125 125.496094 129.914062"/></g></svg>