<svg xmlns="http://www.w3.org/2000/svg" width="375" viewBox="0 0 375 225" height="225" version="1.0"><defs><clipPath id="a"><path d="M 94 12.589844 L 278 12.589844 L 278 123 L 94 123 Z M 94 12.589844"/></clipPath><clipPath id="b"><path d="M 185 129 L 349.488281 129 L 349.488281 212 L 185 212 Z M 185 129"/></clipPath><clipPath id="c"><path d="M 22.5 129 L 186 129 L 186 212 L 22.5 212 Z M 22.5 129"/></clipPath></defs><g clip-path="url(#a)"><path fill="#031A5B" d="M 250.164062 61.851562 L 250.164062 39.085938 L 277.664062 32.789062 L 185.636719 12.722656 L 94.308594 35.804688 L 130.4375 41.152344 C 139.023438 42.421875 145.378906 49.78125 145.378906 58.449219 L 145.378906 70.898438 C 144.558594 74.175781 144.113281 77.605469 144.113281 81.136719 C 144.113281 104.234375 162.859375 122.960938 185.988281 122.960938 C 209.113281 122.960938 227.863281 104.234375 227.863281 81.136719 C 227.863281 77.605469 227.417969 74.175781 226.59375 70.898438 L 226.59375 58.414062 C 226.59375 50.261719 232.234375 43.1875 240.191406 41.367188 L 248.105469 39.554688 L 248.105469 61.851562 C 247.464844 62.027344 247.011719 62.359375 246.957031 62.75 L 245.703125 62.75 L 245.703125 75.722656 C 245.703125 77.613281 247.242188 79.152344 249.132812 79.152344 C 251.03125 79.152344 252.566406 77.613281 252.566406 75.722656 L 252.566406 62.75 L 251.316406 62.75 C 251.253906 62.359375 250.808594 62.027344 250.164062 61.851562"/></g><path fill="#52C3FF" d="M 262.40625 135.53125 C 290.789062 133.335938 307.664062 123.285156 316.820312 115.234375 C 320.105469 112.347656 322.65625 109.503906 324.609375 106.988281 C 324.664062 96.394531 323.761719 85.84375 323.761719 85.84375 C 323.761719 85.84375 311.335938 118.648438 257.820312 122.789062 C 202 127.109375 185.988281 144.207031 185.988281 144.207031 L 185.988281 157.335938 C 192.484375 152.246094 213.445312 139.324219 262.40625 135.53125"/><path fill="#52C3FF" d="M 266.574219 152.9375 C 307.777344 149.75 326.539062 131.035156 333.917969 120.546875 C 334.125 108.113281 333.035156 99.304688 333.035156 99.304688 C 333.035156 99.304688 319.773438 134.316406 262.65625 138.738281 C 203.078125 143.347656 185.988281 161.597656 185.988281 161.597656 L 185.988281 175.972656 C 192.675781 170.6875 214.6875 156.953125 266.574219 152.9375"/><path fill="#52C3FF" d="M 270.460938 169.96875 C 301.945312 167.53125 320.664062 156.359375 330.824219 147.421875 C 336.105469 142.773438 339.679688 138.234375 341.984375 134.757812 C 342.050781 122.824219 341.023438 114.566406 341.023438 114.566406 C 341.023438 114.566406 327.042969 151.480469 266.824219 156.140625 C 204.003906 161.003906 185.988281 180.242188 185.988281 180.242188 L 185.988281 194.152344 C 192.851562 188.6875 215.847656 174.191406 270.460938 169.96875"/><g clip-path="url(#b)"><path fill="#52C3FF" d="M 273.796875 186.78125 C 323.421875 182.941406 343.265625 158.453125 349.488281 148.132812 C 349.410156 137.054688 348.484375 129.59375 348.484375 129.59375 C 348.484375 129.59375 333.832031 168.285156 270.710938 173.167969 C 204.871094 178.265625 185.988281 198.429688 185.988281 198.429688 L 185.988281 211.953125 C 193.007812 206.335938 216.839844 191.1875 273.796875 186.78125"/></g><path fill="#52C3FF" d="M 109.566406 135.53125 C 81.1875 133.335938 64.308594 123.285156 55.15625 115.234375 C 51.867188 112.347656 49.316406 109.503906 47.367188 106.988281 C 47.308594 96.394531 48.214844 85.84375 48.214844 85.84375 C 48.214844 85.84375 60.640625 118.648438 114.15625 122.789062 C 169.972656 127.109375 185.988281 144.207031 185.988281 144.207031 L 185.988281 157.335938 C 179.488281 152.246094 158.527344 139.324219 109.566406 135.53125"/><path fill="#52C3FF" d="M 105.402344 152.9375 C 64.195312 149.75 45.4375 131.035156 38.054688 120.546875 C 37.847656 108.113281 38.9375 99.304688 38.9375 99.304688 C 38.9375 99.304688 52.199219 134.316406 109.316406 138.738281 C 168.894531 143.347656 185.988281 161.597656 185.988281 161.597656 L 185.988281 175.972656 C 179.300781 170.6875 157.285156 156.953125 105.402344 152.9375"/><path fill="#52C3FF" d="M 101.511719 169.96875 C 70.027344 167.53125 51.3125 156.359375 41.148438 147.421875 C 35.871094 142.773438 32.292969 138.234375 29.988281 134.757812 C 29.921875 122.824219 30.949219 114.566406 30.949219 114.566406 C 30.949219 114.566406 44.929688 151.480469 105.148438 156.140625 C 167.96875 161.003906 185.988281 180.242188 185.988281 180.242188 L 185.988281 194.152344 C 179.121094 188.6875 156.125 174.191406 101.511719 169.96875"/><g clip-path="url(#c)"><path fill="#52C3FF" d="M 98.179688 186.78125 C 48.554688 182.941406 28.707031 158.453125 22.488281 148.132812 C 22.566406 137.054688 23.488281 129.59375 23.488281 129.59375 C 23.488281 129.59375 38.140625 168.285156 101.261719 173.167969 C 167.101562 178.265625 185.988281 198.429688 185.988281 198.429688 L 185.988281 211.953125 C 178.96875 206.335938 155.132812 191.1875 98.179688 186.78125"/></g></svg>