<svg width="186" height="77" viewBox="0 0 186 77" fill="none" xmlns="http://www.w3.org/2000/svg">
<path d="M158.037 15.1248C135.547 1.75237 118.528 4.18371 85.3466 35.7912C60.7836 14.5169 36.4701 13.3012 0 30.3207C37.3276 4.18374 47.053 9.04643 85.3466 19.9875C125.822 -0.0711171 122.425 -10.4043 158.037 15.1248Z" fill="black"/>
<path d="M71.7679 54.1538C64.7577 49.8859 59.4116 50.5928 48.9008 60.3978C41.2663 53.6447 33.6443 53.1838 22.1497 58.4025C33.9431 50.3269 36.9776 51.8839 48.9525 55.441C61.7133 49.2822 60.6816 46.03 71.7679 54.1538Z" fill="black"/>
<path d="M120.895 54.6221L145.003 35.5589L175.813 27.6152L150.067 45.4392L120.895 54.6221Z" fill="black"/>
<path d="M133.974 51.7661L150.673 46.6419C150.772 46.6115 150.866 46.5657 150.952 46.5063L165.848 36.1229L171.58 47.0472L139.881 63.2931L133.974 51.7661Z" fill="black"/>
<path d="M113.587 44.0005L114.363 45.0701C115.827 47.0876 117.991 48.4857 120.432 48.9903L123.065 49.5346C123.859 49.6987 124.677 49.7082 125.474 49.5628L132.302 48.3172C132.62 48.2593 132.912 48.5032 132.912 48.826C132.912 49.0758 132.734 49.2899 132.488 49.3347L125.902 50.5361C124.822 50.7331 123.714 50.7201 122.639 50.4979L120.936 50.1458C118.26 49.5926 115.487 50.4474 113.587 52.4114L112.295 50.2756C111.526 49.0031 111.526 47.4088 112.295 46.1363L113.587 44.0005Z" fill="black"/>
</svg>
