<?xml version="1.0"?><svg width="64" height="64" xmlns="http://www.w3.org/2000/svg" xmlns:xlink="http://www.w3.org/1999/xlink">
 <title>mortarboard</title>
 <defs>
  <linearGradient id="linearGradient3800-5">
   <stop id="stop3802-1" offset="0" stop-color="#28292b"/>
   <stop id="stop3804-7" offset="1" stop-color="#1a2334"/>
  </linearGradient>
  <linearGradient id="linearGradient3673-3">
   <stop id="stop3675-2" offset="0" stop-color="#000000"/>
   <stop id="stop3677-2" offset="1" stop-color="#797979"/>
  </linearGradient>
  <linearGradient xlink:href="#linearGradient3673-3" id="linearGradient4324" x1="0.00032" y1="0.530312" x2="0.999534" y2="0.530312"/>
  <linearGradient xlink:href="#linearGradient3800-5" id="linearGradient4339" x1="-0.001026" y1="0.500017" x2="1.00107" y2="0.500017"/>
 </defs>
 <metadata id="metadata3974">image/svg+xml</metadata>
 <g>
  <title>Layer 1</title>
  <g id="svg_1">
   <path d="m18.846966,21.922859l27.362343,-0.000006l1.664227,14.480833c-0.211868,2.470852 -0.313641,2.551003 -1.878124,3.649799c-1.923912,1.063847 -4.254852,1.626129 -6.376755,2.02739c-5.323154,1.006611 -11.203594,0.999832 -18.299881,-1.217834c-2.31279,-0.676838 -3.343817,-3.645782 -3.187536,-4.865391l0.715727,-14.074791z" id="rect3761-0" stroke-miterlimit="4" stroke-width="0.240526" stroke="#050404" fill-rule="nonzero" fill="#000000"/>
   <path d="m0.27618,22.72039l31.0324,-6.846291l32.35697,6.27577l-31.22163,11.981009l-32.16774,-11.410488z" id="rect2830-2" fill="url(#linearGradient4339)"/>
   <path d="m12.01914,37.11668l1.705609,-0.04578c0.96453,3.940079 2.72585,9.416229 2.18924,10.308208c-0.68496,1.46962 -3.91769,2.089993 -4.67989,0.413723c0.043989,-3.169621 0.91372,-6.456432 0.78504,-10.676151z" id="rect3614-4" fill-rule="nonzero" fill="#ffcc00"/>
   <path d="m34.683949,21.702499c-1.122978,0.61706 -3.475098,-0.552509 -3.854448,-0.06008c-0.03964,0.051611 -0.00049,0.343599 0.005461,0.43018c0.926109,0.680231 2.713421,0.69268 3.802097,0.008461l0.04689,-0.378561l0,0l0,0l0,0l0,0l0,0z" id="path3605-7-8" fill="#373737"/>
   <path d="m32.0182,21.6744l0.958229,0.28532c-4.832699,1.245699 -17.613279,2.49437 -19.976899,4.81859c-0.71161,0.7139 -0.0342,3.94837 -0.26089,5.916529l-1.12358,0.006279c0.15444,-1.924629 -0.33504,-4.785908 0.16782,-5.892729c0.54826,-1.12813 2.81771,-2.596779 20.23532,-5.133989l0,0z" id="rect3617-6" fill="#ffcc00"/>
   <rect id="rect3612-5" width="1.986819" height="3.280711" x="5.585073" y="35.631909" transform="matrix(0.981442, -0.139743, 0.16523, 0.982296, 0.00133418, 0.184006)" fill-rule="nonzero" fill="#bfbfbf"/>
   <path d="m34.44788,21.22592c3.548882,-1.181561 7.23439,-2.184441 11.590439,-2.11797c0.19474,-0.04653 0.524323,0.310539 -0.187328,0.32946c-3.838779,0.15378 -7.433559,1.206709 -11.098721,2.000309c-0.46278,0.15699 -0.58567,-0.12604 -0.30439,-0.2118z" id="rect3723-0" fill="#000000"/>
   <path d="m34.511501,22.037149c4.201241,0.91255 8.432487,2.07551 12.697918,4.65221c0.21978,0.06764 0.335632,0.600679 -0.378708,0.20833c-3.883732,-2.066799 -8.054741,-3.129351 -12.142879,-4.48155c-0.549561,-0.11619 -0.504692,-0.458879 -0.176331,-0.37899z" id="rect3723-1-9" fill="#000000"/>
   <path d="m32.06731,21.36857c-4.14662,-1.15064 -8.467001,-2.16979 -13.65222,-2.39255c-0.228691,-0.04879 -0.643181,0.210468 0.202049,0.27022c4.556141,0.36286 8.76545,1.415529 13.074791,2.26923c0.540548,0.15234 0.704538,-0.06188 0.37538,-0.1469z" id="rect3723-1-2-0" fill="#000000"/>
   <path id="path3610-0" d="m13.82556,33.708809a1.5387,1.54645 0 1 1 -3.07741,0a1.5387,1.54645 0 1 1 3.07741,0z" fill-rule="nonzero" fill="#ffcc00"/>
   <path d="m34.683971,21.702471c-0.864262,0.624359 -2.979902,0.60351 -3.865131,0c0,-0.440161 0.865231,-0.79698 1.93256,-0.79698c1.067329,0 1.932571,0.356819 1.932571,0.79698z" id="path3605-6" fill="url(#linearGradient4324)"/>
  </g>
 </g>
</svg>