<svg width="190" height="136" viewBox="0 0 190 136" fill="none" xmlns="http://www.w3.org/2000/svg">
<g filter="url(#filter0_d_86_2)">
<path d="M162.037 15.1248C139.547 1.75237 122.528 4.18371 89.3466 35.7912C64.7836 14.5169 40.4701 13.3012 4 30.3207C41.3276 4.18374 51.053 9.04643 89.3466 19.9875C129.822 -0.0711172 126.425 -10.4043 162.037 15.1248Z" fill="black"/>
<path d="M75.7679 54.154C68.7577 49.8861 63.4116 50.5929 52.9008 60.398C45.2663 53.6449 37.6443 53.1839 26.1497 58.4027C37.9431 50.327 40.9776 51.8841 52.9525 55.4411C65.7133 49.2823 64.6816 46.0301 75.7679 54.154Z" fill="black"/>
<path d="M124.895 54.6221L149.003 35.5589L179.813 27.6152L154.067 45.4392L124.895 54.6221Z" fill="black"/>
<path d="M137.974 51.7659L154.673 46.6417C154.772 46.6112 154.866 46.5655 154.952 46.5061L169.848 36.1226L175.58 47.0469L143.881 63.2929L137.974 51.7659Z" fill="black"/>
<path d="M117.587 44.0005L118.363 45.0701C119.827 47.0876 121.991 48.4857 124.432 48.9903L127.065 49.5346C127.859 49.6987 128.677 49.7082 129.474 49.5628L136.302 48.3172C136.62 48.2593 136.912 48.5032 136.912 48.826V48.826C136.912 49.0758 136.734 49.2899 136.488 49.3347L129.902 50.5361C128.822 50.7331 127.714 50.7201 126.639 50.4979L124.936 50.1458C122.26 49.5926 119.487 50.4474 117.587 52.4114V52.4114L116.295 50.2756C115.526 49.0031 115.526 47.4088 116.295 46.1363L117.587 44.0005Z" fill="black"/>
<g filter="url(#filter1_d_86_2)">
<path d="M38.672 114.48C36.688 114.48 35.008 114.304 33.632 113.952C32.256 113.568 30.832 113.008 29.36 112.272L28.88 104.4H29.648L32 109.488C33.152 110.448 34.272 111.152 35.36 111.6C36.448 112.016 37.552 112.224 38.672 112.224C40.56 112.224 42.032 111.728 43.088 110.736C44.176 109.744 44.72 108.4 44.72 106.704C44.72 105.296 44.4 104.192 43.76 103.392C43.152 102.592 42.256 101.888 41.072 101.28C39.92 100.64 38.544 99.92 36.944 99.12C35.44 98.352 34.16 97.6 33.104 96.864C32.048 96.128 31.248 95.28 30.704 94.32C30.16 93.328 29.888 92.096 29.888 90.624C29.888 89.536 30.144 88.48 30.656 87.456C31.2 86.4 31.92 85.456 32.816 84.624C33.744 83.76 34.768 83.088 35.888 82.608C37.04 82.096 38.224 81.84 39.44 81.84C40.912 81.84 42.272 82.016 43.52 82.368C44.768 82.72 46.048 83.216 47.36 83.856L47.84 91.536H47.072L44.864 86.496C43.744 85.664 42.768 85.072 41.936 84.72C41.104 84.336 40.144 84.144 39.056 84.144C37.648 84.144 36.48 84.624 35.552 85.584C34.656 86.544 34.208 87.728 34.208 89.136C34.208 90.768 34.704 92.048 35.696 92.976C36.688 93.872 38.24 94.832 40.352 95.856C42.304 96.816 43.904 97.712 45.152 98.544C46.4 99.344 47.328 100.272 47.936 101.328C48.544 102.384 48.848 103.728 48.848 105.36C48.848 106.864 48.528 108.192 47.888 109.344C47.248 110.464 46.416 111.408 45.392 112.176C44.4 112.944 43.296 113.52 42.08 113.904C40.896 114.288 39.76 114.48 38.672 114.48ZM53.804 114V113.232L56.828 111.696V83.472L53.948 80.976V80.64L60.38 78H60.668V101.76L68.396 95.184V94.896L66.044 93.168V92.4H75.164V93.168L72.092 94.848L64.172 100.944L73.868 111.6L76.94 113.232V114H70.604L68.78 111.504L60.668 102.48V111.84L64.076 113.232V114H53.804ZM82.2496 125.568C81.5136 125.568 81.0496 125.456 80.8576 125.232C80.6976 125.04 80.6176 124.688 80.6176 124.176V121.776L80.8096 121.584H83.0176C83.8176 121.584 84.4256 121.504 84.8416 121.344C85.2576 121.216 85.6416 120.848 85.9936 120.24C86.3456 119.664 86.8416 118.704 87.4816 117.36L89.1616 113.616L80.3776 94.656L77.1616 93.168V92.4H88.6336V93.168L84.6976 94.656V94.896L91.0816 108.816H91.2256L96.6016 95.184V94.896L93.0016 93.168V92.4H102.41V93.168L98.8096 94.8L89.3536 117.792C89.0656 118.528 88.8096 119.136 88.5856 119.616C88.3936 120.128 88.1696 120.608 87.9136 121.056C87.6576 121.536 87.2896 122.112 86.8096 122.784C86.1696 123.712 85.4496 124.4 84.6496 124.848C83.8496 125.328 83.0496 125.568 82.2496 125.568ZM104.448 114V113.232L108.288 111.312V85.008L104.448 83.088V82.32H127.92V90.576H127.152L124.176 84.96H112.608V96.336H120.768L123.168 92.352H123.936V102.864H123.168L120.768 98.976H112.608V111.36H125.52L128.496 105.264H129.264V114H104.448ZM135.761 114V113.232L139.601 111.312V85.008L135.761 83.088V82.32H149.825C153.345 82.32 156.353 82.944 158.849 84.192C161.345 85.44 163.233 87.152 164.513 89.328C165.825 91.504 166.481 93.968 166.481 96.72C166.481 99.216 166.049 101.52 165.185 103.632C164.353 105.744 163.169 107.568 161.633 109.104C160.097 110.64 158.289 111.84 156.209 112.704C154.161 113.568 151.921 114 149.489 114H135.761ZM148.721 84.96H143.921V111.36H149.441C152.001 111.36 154.209 110.832 156.065 109.776C157.953 108.688 159.393 107.168 160.385 105.216C161.409 103.232 161.921 100.896 161.921 98.208C161.921 95.552 161.409 93.232 160.385 91.248C159.361 89.232 157.857 87.68 155.873 86.592C153.921 85.504 151.537 84.96 148.721 84.96Z" fill="black"/>
</g>
</g>
<defs>
<filter id="filter0_d_86_2" x="0" y="0" width="183.813" height="133.568" filterUnits="userSpaceOnUse" color-interpolation-filters="sRGB">
<feFlood flood-opacity="0" result="BackgroundImageFix"/>
<feColorMatrix in="SourceAlpha" type="matrix" values="0 0 0 0 0 0 0 0 0 0 0 0 0 0 0 0 0 0 127 0" result="hardAlpha"/>
<feOffset dy="4"/>
<feGaussianBlur stdDeviation="2"/>
<feComposite in2="hardAlpha" operator="out"/>
<feColorMatrix type="matrix" values="0 0 0 0 0 0 0 0 0 0 0 0 0 0 0 0 0 0 0.25 0"/>
<feBlend mode="normal" in2="BackgroundImageFix" result="effect1_dropShadow_86_2"/>
<feBlend mode="normal" in="SourceGraphic" in2="effect1_dropShadow_86_2" result="shape"/>
</filter>
<filter id="filter1_d_86_2" x="24.8799" y="78" width="145.601" height="55.5681" filterUnits="userSpaceOnUse" color-interpolation-filters="sRGB">
<feFlood flood-opacity="0" result="BackgroundImageFix"/>
<feColorMatrix in="SourceAlpha" type="matrix" values="0 0 0 0 0 0 0 0 0 0 0 0 0 0 0 0 0 0 127 0" result="hardAlpha"/>
<feOffset dy="4"/>
<feGaussianBlur stdDeviation="2"/>
<feComposite in2="hardAlpha" operator="out"/>
<feColorMatrix type="matrix" values="0 0 0 0 0 0 0 0 0 0 0 0 0 0 0 0 0 0 0.25 0"/>
<feBlend mode="normal" in2="BackgroundImageFix" result="effect1_dropShadow_86_2"/>
<feBlend mode="normal" in="SourceGraphic" in2="effect1_dropShadow_86_2" result="shape"/>
</filter>
</defs>
</svg>
